HIERARCHY
ROOT joint_Root
{
	OFFSET 0.0 0.0 0.0
	CHANNELS 6 Xposition Yposition Zposition Zrotation Xrotation Yrotation 
	JOINT Hips
	{
		OFFSET -0.726466 93.3139 -2.00062
		CHANNELS 6 Xposition Yposition Zposition Zrotation Xrotation Yrotation 
		JOINT Spine
		{
			OFFSET 15.7357 0.0 0.0
			CHANNELS 6 Xposition Yposition Zposition Zrotation Xrotation Yrotation 
			JOINT Chest
			{
				OFFSET 8.98455 -0.406207 0.0
				CHANNELS 6 Xposition Yposition Zposition Zrotation Xrotation Yrotation 
				JOINT Neck
				{
					OFFSET 16.3773 0.0 0.0
					CHANNELS 6 Xposition Yposition Zposition Zrotation Xrotation Yrotation 
					JOINT Head
					{
						OFFSET 6.45672 0.0 0.0
						CHANNELS 6 Xposition Yposition Zposition Zrotation Xrotation Yrotation 
						End Site
						{
							OFFSET 0.0 0.0 0.0
						}
					}
				}
				JOINT Shoulder_L
				{
					OFFSET 12.9942 -0.242716 4.98039
					CHANNELS 6 Xposition Yposition Zposition Zrotation Xrotation Yrotation 
					JOINT UpperArm_L
					{
						OFFSET 5.34809 0.0 0.0
						CHANNELS 6 Xposition Yposition Zposition Zrotation Xrotation Yrotation 
						JOINT LowerArm_L
						{
							OFFSET 24.3286 1.87007e-05 0.0
							CHANNELS 6 Xposition Yposition Zposition Zrotation Xrotation Yrotation 
							JOINT Hand_L
							{
								OFFSET 22.2916 0.0 0.0
								CHANNELS 6 Xposition Yposition Zposition Zrotation Xrotation Yrotation 
								End Site
								{
									OFFSET 0.0 0.0 0.0
								}
							}
						}
					}
				}
				JOINT Shoulder_R
				{
					OFFSET 12.9945 -0.242716 -4.98039
					CHANNELS 6 Xposition Yposition Zposition Zrotation Xrotation Yrotation 
					JOINT UpperArm_R
					{
						OFFSET -5.34813 0.0 0.0
						CHANNELS 6 Xposition Yposition Zposition Zrotation Xrotation Yrotation 
						JOINT LowerArm_R
						{
							OFFSET -24.3289 0.000322201 0.0
							CHANNELS 6 Xposition Yposition Zposition Zrotation Xrotation Yrotation 
							JOINT Hand_R
							{
								OFFSET -22.2915 -0.000108084 0.0
								CHANNELS 6 Xposition Yposition Zposition Zrotation Xrotation Yrotation 
								End Site
								{
									OFFSET 0.0 0.0 0.0
								}
							}
						}
					}
				}
			}
		}
		JOINT UpperLeg_L
		{
			OFFSET -2.19248 -6.46944 0.0
			CHANNELS 6 Xposition Yposition Zposition Zrotation Xrotation Yrotation 
			JOINT LowerLeg_L
			{
				OFFSET 39.0811 0.0 -1.23785e-05
				CHANNELS 6 Xposition Yposition Zposition Zrotation Xrotation Yrotation 
				JOINT Foot_L
				{
					OFFSET 40.9854 0.0 -1.26872e-05
					CHANNELS 6 Xposition Yposition Zposition Zrotation Xrotation Yrotation 
					JOINT Toes_L
					{
						OFFSET 11.7543 0.0 0.0
						CHANNELS 6 Xposition Yposition Zposition Zrotation Xrotation Yrotation 
						End Site
						{
							OFFSET 0.0 0.0 0.0
						}
					}
				}
			}
		}
		JOINT UpperLeg_R
		{
			OFFSET -2.19251 6.46944 0.0
			CHANNELS 6 Xposition Yposition Zposition Zrotation Xrotation Yrotation 
			JOINT LowerLeg_R
			{
				OFFSET -39.0811 -0.00228153 -0.0401928
				CHANNELS 6 Xposition Yposition Zposition Zrotation Xrotation Yrotation 
				JOINT Foot_R
				{
					OFFSET -40.9854 0.0 0.0
					CHANNELS 6 Xposition Yposition Zposition Zrotation Xrotation Yrotation 
					JOINT Toes_R
					{
						OFFSET -11.7543 0.0 0.0
						CHANNELS 6 Xposition Yposition Zposition Zrotation Xrotation Yrotation 
						End Site
						{
							OFFSET 0.0 0.0 0.0
						}
					}
				}
			}
		}
	}
}
MOTION
Frames:	4
Frame Time:	0.0333333
0.000000 0.000000 0.000000 0.000000 0.000000 -0.000000 -2.345940 89.914500 509.493000 -85.485300 5.427140 -178.417000 15.735700 0.000005 -0.000001 80.304900 81.097900 -79.804100 8.984550 -0.406207 -0.000000 9.806790 -2.971160 1.256150 16.377300 -0.000001 -0.000001 6.343320 0.675803 -0.930484 6.456720 -0.000001 -0.000000 1.462660 3.977420 1.120570 12.994200 -0.242716 4.980390 -88.700200 -3.728560 -70.765000 5.348090 -0.000007 -0.000001 -43.344400 32.500900 -29.342900 24.328600 0.000019 0.000005 1.337830 1.330150 -45.167000 22.291600 -0.000001 0.000005 7.918380 5.588500 -10.679800 12.994500 -0.242716 -4.980390 89.252000 1.876690 -68.263000 -5.348130 -0.000001 -0.000004 -60.930500 33.514900 -3.829570 -24.328900 0.000322 -0.000009 5.594830 7.912340 -35.441800 -22.291500 -0.000108 -0.000004 -0.917811 5.554620 -8.924630 -2.192480 -6.469440 -0.000000 -176.116000 -9.827570 -11.953800 39.081100 -0.000007 -0.000012 -0.299478 0.390735 37.468900 40.985400 -0.000006 -0.000013 -0.465183 -5.986200 -74.079300 11.754300 -0.000000 0.000003 -0.000105 -0.001070 -16.618600 -2.192510 6.469440 -0.000001 176.477000 9.222220 164.511000 -39.081100 -0.002282 -0.040193 0.221785 -0.093337 66.882200 -40.985400 0.000008 0.000006 -0.605486 -3.165560 -49.795700 -11.754300 -0.000006 -0.000006 -0.019407 -0.163981 -23.271600
0.000000 0.000000 0.000000 0.000000 0.000000 -0.000000 -2.502290 90.506300 507.150000 -84.636700 4.218830 -178.157000 15.735700 0.000005 -0.000001 76.880200 80.767700 -75.976000 8.984550 -0.406207 -0.000000 10.269800 -4.143930 2.180400 16.377300 -0.000001 -0.000001 6.618970 0.634967 -1.002130 6.456720 -0.000001 -0.000000 1.378610 4.561240 0.976082 12.994200 -0.242716 4.980390 -88.441600 -4.536280 -71.016600 5.348090 -0.000007 -0.000001 -39.510300 30.686900 -33.509900 24.328600 0.000019 0.000005 1.893020 1.771810 -46.914100 22.291600 -0.000001 0.000005 7.886180 5.585860 -10.530200 12.994500 -0.242716 -4.980390 89.471300 1.271840 -67.424800 -5.348130 -0.000001 -0.000004 -61.102500 32.116700 -1.485020 -24.328900 0.000322 -0.000009 5.688560 7.843580 -36.131800 -22.291500 -0.000108 -0.000004 -0.699725 5.554160 -8.904550 -2.192480 -6.469440 -0.000000 -175.140000 -9.131260 -8.292830 39.081100 -0.000007 -0.000012 -0.269463 0.399053 34.029900 40.985400 -0.000006 -0.000013 -0.348614 -5.454840 -74.036800 11.754300 -0.000000 0.000003 -0.000108 -0.001099 -16.619700 -2.192510 6.469440 -0.000001 178.350000 9.861050 161.053000 -39.081100 -0.002282 -0.040193 0.181337 -0.082519 65.149400 -40.985400 0.000008 0.000006 -0.733735 -3.786250 -51.865300 -11.754300 -0.000006 -0.000006 -0.018258 -0.157442 -23.002500
0.000000 0.000000 0.000000 0.000000 0.000000 -0.000000 -2.638990 90.910200 504.925000 -83.811200 3.058300 -178.127000 15.735700 0.000005 -0.000001 74.387500 80.510700 -73.058800 8.984550 -0.406207 -0.000000 10.602700 -5.039470 3.125060 16.377300 -0.000001 -0.000001 6.772850 0.485464 -1.014860 6.456720 -0.000001 -0.000000 1.195460 4.906140 0.968522 12.994200 -0.242716 4.980390 -88.158600 -5.409430 -71.169600 5.348090 -0.000007 -0.000001 -36.740100 28.736000 -36.669700 24.328600 0.000019 0.000005 1.484940 1.290560 -49.019300 22.291600 -0.000001 0.000005 7.839690 5.590060 -10.765900 12.994500 -0.242716 -4.980390 89.657800 0.785683 -66.461500 -5.348130 -0.000001 -0.000004 -60.744100 30.846600 0.397308 -24.328900 0.000322 -0.000009 5.607020 7.490960 -36.987200 -22.291500 -0.000108 -0.000004 -0.780825 5.549930 -8.701430 -2.192480 -6.469440 -0.000000 -174.177000 -8.692360 -5.206660 39.081100 -0.000007 -0.000012 -0.231454 0.385460 30.983600 40.985400 -0.000006 -0.000013 -0.254368 -4.821570 -74.075800 11.754300 -0.000000 0.000003 -0.000159 -0.001526 -16.635500 -2.192510 6.469440 -0.000001 -179.870000 11.137500 158.043000 -39.081100 -0.002282 -0.040193 0.142765 -0.078393 60.677900 -40.985400 0.000008 0.000006 -0.714707 -4.817680 -53.450400 -11.754300 -0.000006 -0.000006 -0.020432 -0.169671 -23.506000
0.000000 0.000000 0.000000 0.000000 0.000000 -0.000000 -2.785420 91.153300 502.773000 -83.148200 1.966580 -178.281000 15.735700 0.000005 -0.000001 72.346900 80.253300 -70.635300 8.984550 -0.406207 -0.000000 10.940800 -5.820890 3.981770 16.377300 -0.000001 -0.000001 6.818520 0.323202 -0.993222 6.456720 -0.000001 -0.000000 0.882048 5.199920 0.927375 12.994200 -0.242716 4.980390 -87.940200 -6.085600 -71.259700 5.348090 -0.000007 -0.000001 -34.526800 26.795700 -38.994300 24.328600 0.000019 0.000005 0.980826 0.778458 -51.572300 22.291600 -0.000001 0.000005 8.357830 5.587750 -10.636000 12.994500 -0.242716 -4.980390 89.783900 0.478548 -65.699500 -5.348130 -0.000001 -0.000004 -60.143700 29.686800 1.641200 -24.328900 0.000322 -0.000009 5.808070 7.609190 -37.535900 -22.291500 -0.000108 -0.000004 -0.494491 5.549180 -8.667130 -2.192480 -6.469440 -0.000000 -173.434000 -8.259700 -2.610640 39.081100 -0.000007 -0.000012 -0.211365 0.393245 28.257900 40.985400 -0.000006 -0.000013 -0.090788 -4.114750 -74.167400 11.754300 -0.000000 0.000003 -0.000155 -0.001497 -16.634400 -2.192510 6.469440 -0.000001 -178.146000 12.491000 155.771000 -39.081100 -0.002282 -0.040193 0.102151 -0.073023 53.564900 -40.985400 0.000008 0.000006 -0.422615 -5.320790 -54.285400 -11.754300 -0.000006 -0.000006 -0.020994 -0.172736 -23.632300
